# xmcd
#
# Track frame offsets:
#	150
#	18159
#	31395
#	47198
#	63713
#	79824
#	93371
#	107923
#	123209
#	136231
#	150484
#	171040
#	184039
#	198755
#	214457
#	231899
#	246888
#	264736
#	280853
#	298453
#
# Disc length: 4176 seconds
#
# Revision: 1
# Processed by: cddbd v1.5.2PL0 Copyright (c) Steve Scherf et al.
# Submitted via: audiograbber 1.83.01
#
DISCID=25104e14
DTITLE=Various Artist - CDX Volume 642 (January 9, 2017)
DYEAR=2017
DGENRE=Country
TTITLE0=Billy Currington - Do I Make You Wanna 
TTITLE1=Mo Pitney - Everywhere
TTITLE2=Luke Bryan - Fast
TTITLE3=Brothers Osborne - It Ain't My Fault
TTITLE4=Bailey Bryan - Own It
TTITLE5=Blackberry Smoke - Let It Burn
TTITLE6=Michael Tyler - They Can't See
TTITLE7=Shane Owens - All The Beer In Alabama
TTITLE8=Matt Gary - Back
TTITLE9=Candy Fernaux - Beauty Don't Come Cheap
TTITLE10=Nick Brennan - Buck Naked
TTITLE11=Ryan Weaver - Burn
TTITLE12=Kevin Moon - Good Whiskey
TTITLE13=Hillbilly Vegas - High Time For A Good Time
TTITLE14=Joe Denim - If I Had A Million Dollars
TTITLE15=Cherie Brennan - Life Is Fun
TTITLE16=Maddie Wilson - Love Like Theirs
TTITLE17=Mickey Lamantia - Outlaw Life
TTITLE18=Courtney Dickinson - So Over The Rainbow
TTITLE19=Smith and Wesley - The Little Things
EXTD=
EXTT0=
EXTT1=
EXTT2=
EXTT3=
EXTT4=
EXTT5=
EXTT6=
EXTT7=
EXTT8=
EXTT9=
EXTT10=
EXTT11=
EXTT12=
EXTT13=
EXTT14=
EXTT15=
EXTT16=
EXTT17=
EXTT18=
EXTT19=
PLAYORDER=
